<svg width="12" height="16" viewBox="0 0 12 16" fill="none" xmlns="http://www.w3.org/2000/svg">
<path d="M6 0C2.69153 0 0 2.65137 0 5.91047C0 6.9834 0.488471 8.13733 0.508941 8.18601C0.666706 8.55489 0.978 9.12786 1.20247 9.46371L5.31635 15.604C5.48471 15.8557 5.73388 16 6 16C6.26612 16 6.51529 15.8557 6.68365 15.6043L10.7979 9.46371C11.0227 9.12786 11.3336 8.55489 11.4914 8.18601C11.5119 8.13768 12 6.98375 12 5.91047C12 2.65137 9.30847 0 6 0ZM10.8406 7.91621C10.6998 8.24685 10.41 8.77983 10.2085 9.08092L6.09424 15.2216C6.01306 15.3429 5.98729 15.3429 5.90612 15.2216L1.79188 9.08092C1.59035 8.77983 1.30059 8.2465 1.15976 7.91586C1.15376 7.90161 0.705882 6.83946 0.705882 5.91047C0.705882 3.03485 3.08082 0.69535 6 0.69535C8.91918 0.69535 11.2941 3.03485 11.2941 5.91047C11.2941 6.84085 10.8452 7.90578 10.8406 7.91621Z" fill="#302B2A"/>
<path d="M5.99999 2.78175C4.24835 2.78175 2.82352 4.18567 2.82352 5.91084C2.82352 7.636 4.24835 9.03992 5.99999 9.03992C7.75164 9.03992 9.17646 7.636 9.17646 5.91084C9.17646 4.18567 7.75164 2.78175 5.99999 2.78175ZM5.99999 8.34457C4.63799 8.34457 3.52941 7.25286 3.52941 5.91084C3.52941 4.56881 4.63799 3.47711 5.99999 3.47711C7.36199 3.47711 8.47058 4.56881 8.47058 5.91084C8.47058 7.25286 7.36199 8.34457 5.99999 8.34457Z" fill="#302B2A"/>
</svg>
