<svg width="60" height="60" viewBox="0 0 60 60" fill="none" xmlns="http://www.w3.org/2000/svg">
<rect x="0.683013" y="22.183" width="43" height="43" rx="1.5" transform="rotate(-30 0.683013 22.183)" stroke="#C08B61"/>
<rect x="12.0525" y="8.05255" width="44" height="44" rx="2" fill="#4C1A0D"/>
<path d="M22.4765 23.1486C22.4765 23.2439 22.4692 23.3796 22.4545 23.5556H17.8455C17.9262 23.9882 18.1352 24.3329 18.4725 24.5896C18.8172 24.8389 19.2425 24.9636 19.7485 24.9636C20.3938 24.9636 20.9255 24.7509 21.3435 24.3256L22.0805 25.1726C21.8165 25.4879 21.4828 25.7262 21.0795 25.8876C20.6762 26.0489 20.2215 26.1296 19.7155 26.1296C19.0702 26.1296 18.5018 26.0012 18.0105 25.7446C17.5192 25.4879 17.1378 25.1322 16.8665 24.6776C16.6025 24.2156 16.4705 23.6949 16.4705 23.1156C16.4705 22.5436 16.5988 22.0302 16.8555 21.5756C17.1195 21.1136 17.4825 20.7542 17.9445 20.4976C18.4065 20.2409 18.9272 20.1126 19.5065 20.1126C20.0785 20.1126 20.5882 20.2409 21.0355 20.4976C21.4902 20.7469 21.8422 21.1026 22.0915 21.5646C22.3482 22.0192 22.4765 22.5472 22.4765 23.1486ZM19.5065 21.2126C19.0665 21.2126 18.6925 21.3446 18.3845 21.6086C18.0838 21.8652 17.9005 22.2099 17.8345 22.6426H21.1675C21.1088 22.2172 20.9292 21.8726 20.6285 21.6086C20.3278 21.3446 19.9538 21.2126 19.5065 21.2126ZM26.5693 18.9246C25.9899 18.9246 25.7003 19.2399 25.7003 19.8706V20.2226H27.3173V21.3226H25.7443V26.0526H24.3693V21.3226H23.4013V20.2226H24.3693V19.8486C24.3693 19.2179 24.5526 18.7229 24.9193 18.3636C25.2859 17.9969 25.8029 17.8136 26.4703 17.8136C26.9983 17.8136 27.4126 17.9199 27.7133 18.1326L27.3283 19.1666C27.0936 19.0052 26.8406 18.9246 26.5693 18.9246ZM31.0148 18.9246C30.4355 18.9246 30.1458 19.2399 30.1458 19.8706V20.2226H31.7628V21.3226H30.1898V26.0526H28.8148V21.3226H27.8468V20.2226H28.8148V19.8486C28.8148 19.2179 28.9981 18.7229 29.3648 18.3636C29.7315 17.9969 30.2485 17.8136 30.9158 17.8136C31.4438 17.8136 31.8581 17.9199 32.1588 18.1326L31.7738 19.1666C31.5391 19.0052 31.2861 18.9246 31.0148 18.9246ZM38.5094 23.1486C38.5094 23.2439 38.5021 23.3796 38.4874 23.5556H33.8784C33.9591 23.9882 34.1681 24.3329 34.5054 24.5896C34.8501 24.8389 35.2754 24.9636 35.7814 24.9636C36.4268 24.9636 36.9584 24.7509 37.3764 24.3256L38.1134 25.1726C37.8494 25.4879 37.5158 25.7262 37.1124 25.8876C36.7091 26.0489 36.2544 26.1296 35.7484 26.1296C35.1031 26.1296 34.5348 26.0012 34.0434 25.7446C33.5521 25.4879 33.1708 25.1322 32.8994 24.6776C32.6354 24.2156 32.5034 23.6949 32.5034 23.1156C32.5034 22.5436 32.6318 22.0302 32.8884 21.5756C33.1524 21.1136 33.5154 20.7542 33.9774 20.4976C34.4394 20.2409 34.9601 20.1126 35.5394 20.1126C36.1114 20.1126 36.6211 20.2409 37.0684 20.4976C37.5231 20.7469 37.8751 21.1026 38.1244 21.5646C38.3811 22.0192 38.5094 22.5472 38.5094 23.1486ZM35.5394 21.2126C35.0994 21.2126 34.7254 21.3446 34.4174 21.6086C34.1168 21.8652 33.9334 22.2099 33.8674 22.6426H37.2004C37.1418 22.2172 36.9621 21.8726 36.6614 21.6086C36.3608 21.3446 35.9868 21.2126 35.5394 21.2126ZM42.9102 26.1296C42.3015 26.1296 41.7552 26.0012 41.2712 25.7446C40.7872 25.4879 40.4095 25.1322 40.1382 24.6776C39.8669 24.2156 39.7312 23.6949 39.7312 23.1156C39.7312 22.5362 39.8669 22.0192 40.1382 21.5646C40.4095 21.1099 40.7835 20.7542 41.2602 20.4976C41.7442 20.2409 42.2942 20.1126 42.9102 20.1126C43.4895 20.1126 43.9955 20.2299 44.4282 20.4646C44.8682 20.6992 45.1982 21.0366 45.4182 21.4766L44.3622 22.0926C44.1935 21.8212 43.9809 21.6196 43.7242 21.4876C43.4749 21.3482 43.1999 21.2786 42.8992 21.2786C42.3859 21.2786 41.9605 21.4472 41.6232 21.7846C41.2859 22.1146 41.1172 22.5582 41.1172 23.1156C41.1172 23.6729 41.2822 24.1202 41.6122 24.4576C41.9495 24.7876 42.3785 24.9526 42.8992 24.9526C43.1999 24.9526 43.4749 24.8866 43.7242 24.7546C43.9809 24.6152 44.1935 24.4099 44.3622 24.1386L45.4182 24.7546C45.1909 25.1946 44.8572 25.5356 44.4172 25.7776C43.9845 26.0122 43.4822 26.1296 42.9102 26.1296ZM50.598 25.7336C50.4367 25.8656 50.2387 25.9646 50.004 26.0306C49.7767 26.0966 49.5347 26.1296 49.278 26.1296C48.6327 26.1296 48.134 25.9609 47.782 25.6236C47.43 25.2862 47.254 24.7949 47.254 24.1496V21.3226H46.286V20.2226H47.254V18.8806H48.629V20.2226H50.202V21.3226H48.629V24.1166C48.629 24.4026 48.6987 24.6226 48.838 24.7766C48.9773 24.9232 49.179 24.9966 49.443 24.9966C49.751 24.9966 50.0077 24.9159 50.213 24.7546L50.598 25.7336Z" fill="white"/>
<path d="M16.5165 32.6526H17.1285V40.5006H21.9645V41.0526H16.5165V32.6526ZM23.776 32.6526H24.388V41.0526H23.776V32.6526ZM33.5551 36.8886H34.1431V40.0326C33.7751 40.3846 33.3271 40.6526 32.7991 40.8366C32.2791 41.0206 31.7271 41.1126 31.1431 41.1126C30.3111 41.1126 29.5591 40.9286 28.8871 40.5606C28.2231 40.1926 27.6991 39.6846 27.3151 39.0366C26.9391 38.3886 26.7511 37.6606 26.7511 36.8526C26.7511 36.0446 26.9391 35.3166 27.3151 34.6686C27.6991 34.0206 28.2231 33.5126 28.8871 33.1446C29.5591 32.7766 30.3151 32.5926 31.1551 32.5926C31.7711 32.5926 32.3351 32.6926 32.8471 32.8926C33.3671 33.0846 33.8111 33.3686 34.1791 33.7446L33.7951 34.1526C33.4431 33.8006 33.0471 33.5486 32.6071 33.3966C32.1751 33.2366 31.6951 33.1566 31.1671 33.1566C30.4471 33.1566 29.7951 33.3166 29.2111 33.6366C28.6351 33.9566 28.1831 34.4006 27.8551 34.9686C27.5271 35.5286 27.3631 36.1566 27.3631 36.8526C27.3631 37.5406 27.5271 38.1686 27.8551 38.7366C28.1911 39.2966 28.6471 39.7406 29.2231 40.0686C29.7991 40.3886 30.4471 40.5486 31.1671 40.5486C32.1271 40.5486 32.9231 40.2926 33.5551 39.7806V36.8886ZM43.9163 32.6526V41.0526H43.3043V37.0566H37.6883V41.0526H37.0763V32.6526H37.6883V36.5166H43.3043V32.6526H43.9163ZM48.6978 33.2046H45.6738V32.6526H52.3338V33.2046H49.3098V41.0526H48.6978V33.2046Z" fill="white"/>
</svg>
